<svg width="426" height="336" viewBox="0 0 426 336" fill="none" xmlns="http://www.w3.org/2000/svg">
<circle cx="213" cy="150" r="150" fill="#C7A5A5"/>
<g filter="url(#filter0_d_22_46)">
<path d="M99.2305 75.3984C103.007 76.0495 106.327 76.5052 109.191 76.7656C112.186 77.026 114.66 77.2214 116.613 77.3516C118.957 77.4818 120.975 77.5469 122.668 77.5469C124.361 77.5469 126.77 77.4167 129.895 77.1562C132.499 76.8958 135.884 76.5703 140.051 76.1797C144.348 75.7891 149.621 75.138 155.871 74.2266C154.048 74.7474 152.355 76.2448 150.793 78.7188C149.361 81.0625 148.059 83.6016 146.887 86.3359C145.454 89.5911 144.217 93.1719 143.176 97.0781C142.264 100.594 141.092 105.411 139.66 111.531C138.358 117.651 137.056 124.292 135.754 131.453C134.582 138.615 133.671 145.906 133.02 153.328C132.368 160.62 132.238 167.326 132.629 173.445C133.15 179.565 134.387 184.643 136.34 188.68C138.293 192.586 141.288 194.669 145.324 194.93C151.444 195.451 156.522 195.516 160.559 195.125C164.725 194.604 168.111 193.888 170.715 192.977C173.319 192.065 175.337 191.023 176.77 189.852C178.202 188.549 179.309 187.312 180.09 186.141C182.173 183.146 184.322 179.305 186.535 174.617C188.749 169.93 190.702 165.438 192.395 161.141C194.217 156.844 195.715 153.198 196.887 150.203C198.059 147.208 198.645 145.776 198.645 145.906C198.645 146.167 198.579 147.664 198.449 150.398C198.449 153.003 198.384 156.193 198.254 159.969C198.254 163.615 198.189 167.456 198.059 171.492C198.059 175.529 197.993 178.979 197.863 181.844C197.733 184.188 197.603 186.792 197.473 189.656C197.342 192.13 197.212 195.06 197.082 198.445C197.082 201.831 196.952 205.542 196.691 209.578C191.223 209.188 186.014 208.927 181.066 208.797C176.118 208.667 171.757 208.602 167.98 208.602C163.553 208.602 159.452 208.667 155.676 208.797C151.639 208.927 146.952 209.122 141.613 209.383C137.056 209.643 131.392 209.969 124.621 210.359C117.85 210.62 110.038 211.01 101.184 211.531C102.225 209.708 103.072 208.016 103.723 206.453C104.504 204.891 105.09 203.589 105.48 202.547C106.001 201.245 106.327 200.138 106.457 199.227C107.238 195.06 107.889 189.786 108.41 183.406C108.931 176.896 109.322 169.995 109.582 162.703C109.973 155.411 110.168 147.99 110.168 140.438C110.298 132.755 110.298 125.659 110.168 119.148C110.038 112.638 109.777 106.974 109.387 102.156C109.126 97.3385 108.736 94.0182 108.215 92.1953C107.564 90.112 106.783 88.0286 105.871 85.9453C105.09 84.1224 104.113 82.2995 102.941 80.4766C101.9 78.5234 100.663 76.8307 99.2305 75.3984ZM199.621 74.4219C203.788 75.0729 207.564 75.6589 210.949 76.1797C214.335 76.5703 217.264 76.8958 219.738 77.1562C222.603 77.5469 225.142 77.8724 227.355 78.1328C230.09 78.5234 234.191 78.0677 239.66 76.7656C245.129 75.3333 251.118 74.0312 257.629 72.8594C264.27 71.5573 271.04 70.8411 277.941 70.7109C284.842 70.4505 291.158 71.6875 296.887 74.4219C302.616 77.1562 307.303 79.8906 310.949 82.625C314.595 85.3594 317.46 88.2891 319.543 91.4141C321.757 94.4089 323.319 97.599 324.23 100.984C325.142 104.37 325.663 108.081 325.793 112.117C325.663 118.107 324.23 123.901 321.496 129.5C320.324 131.844 318.762 134.318 316.809 136.922C314.986 139.396 312.707 141.805 309.973 144.148C307.238 146.492 303.983 148.706 300.207 150.789C296.561 152.872 292.264 154.695 287.316 156.258C292.134 157.69 296.105 159.383 299.23 161.336C302.486 163.289 305.09 165.112 307.043 166.805C309.387 168.888 311.145 170.906 312.316 172.859C313.749 175.594 314.725 177.938 315.246 179.891C315.767 181.844 316.092 183.732 316.223 185.555C316.483 187.247 316.809 189.005 317.199 190.828C317.59 192.651 318.436 194.734 319.738 197.078C320.78 198.901 322.017 200.789 323.449 202.742C324.751 204.435 326.249 206.258 327.941 208.211C329.764 210.164 331.978 212.052 334.582 213.875C330.936 214.005 327.551 214.07 324.426 214.07C321.431 214.07 318.827 214.07 316.613 214.07C314.009 214.07 311.535 214.005 309.191 213.875C306.848 213.745 303.918 213.68 300.402 213.68C297.408 213.68 293.566 213.68 288.879 213.68C284.322 213.68 278.788 213.745 272.277 213.875C275.142 211.661 277.486 209.448 279.309 207.234C281.132 205.021 282.564 203.003 283.605 201.18C284.777 199.096 285.624 197.078 286.145 195.125C286.796 191.609 286.861 187.964 286.34 184.188C285.949 180.932 284.908 177.352 283.215 173.445C281.522 169.409 278.788 165.372 275.012 161.336C271.236 161.987 268.046 162.508 265.441 162.898C262.967 163.159 260.819 163.419 258.996 163.68C256.913 163.94 255.22 164.135 253.918 164.266C252.746 164.396 251.444 164.526 250.012 164.656C248.84 164.786 247.538 164.982 246.105 165.242C244.803 165.372 243.566 165.568 242.395 165.828C242.134 171.427 242.134 176.31 242.395 180.477C242.655 184.513 242.98 187.898 243.371 190.633C243.892 193.888 244.478 196.688 245.129 199.031C245.78 201.375 246.691 203.654 247.863 205.867C248.775 207.69 249.947 209.643 251.379 211.727C252.811 213.68 254.439 215.307 256.262 216.609C252.876 216.609 249.621 216.609 246.496 216.609C243.501 216.609 240.767 216.544 238.293 216.414C235.428 216.414 232.694 216.349 230.09 216.219C227.486 216.089 224.556 216.023 221.301 216.023C218.566 216.023 215.311 216.023 211.535 216.023C207.889 216.023 203.918 216.089 199.621 216.219C203.007 212.703 205.676 209.708 207.629 207.234C209.582 204.76 211.079 202.677 212.121 200.984C213.293 199.161 214.009 197.599 214.27 196.297C214.53 194.214 214.725 190.503 214.855 185.164C215.116 179.695 215.311 173.445 215.441 166.414C215.572 159.383 215.637 152.026 215.637 144.344C215.637 136.661 215.572 129.5 215.441 122.859C215.311 116.089 215.181 110.294 215.051 105.477C214.921 100.659 214.79 97.599 214.66 96.2969C214.27 93.9531 213.423 91.6094 212.121 89.2656C211.079 87.1823 209.582 84.8385 207.629 82.2344C205.676 79.6302 203.007 77.026 199.621 74.4219ZM273.449 143.172C274.751 142.391 275.858 141.609 276.77 140.828C277.681 140.047 278.462 138.81 279.113 137.117C279.764 135.294 280.285 132.755 280.676 129.5C281.197 126.245 281.783 121.818 282.434 116.219C282.954 110.62 282.564 105.997 281.262 102.352C280.09 98.7057 278.462 95.8411 276.379 93.7578C274.426 91.5443 272.212 90.0469 269.738 89.2656C267.395 88.3542 265.311 87.8984 263.488 87.8984C259.842 87.8984 256.262 89.0052 252.746 91.2188C249.23 93.4323 246.561 96.4271 244.738 100.203C244.087 101.896 243.501 104.695 242.98 108.602C242.59 111.987 242.329 116.674 242.199 122.664C242.069 128.654 242.264 136.531 242.785 146.297C247.733 147.078 252.095 147.404 255.871 147.273C259.647 147.013 262.837 146.557 265.441 145.906C268.566 145.255 271.236 144.344 273.449 143.172Z" fill="#5D3232"/>
</g>
<defs>
<filter id="filter0_d_22_46" x="95.2305" y="70.3203" width="243.352" height="154.289" filterUnits="userSpaceOnUse" color-interpolation-filters="sRGB">
<feFlood flood-opacity="0" result="BackgroundImageFix"/>
<feColorMatrix in="SourceAlpha" type="matrix" values="0 0 0 0 0 0 0 0 0 0 0 0 0 0 0 0 0 0 127 0" result="hardAlpha"/>
<feOffset dy="4"/>
<feGaussianBlur stdDeviation="2"/>
<feComposite in2="hardAlpha" operator="out"/>
<feColorMatrix type="matrix" values="0 0 0 0 0 0 0 0 0 0 0 0 0 0 0 0 0 0 0.25 0"/>
<feBlend mode="normal" in2="BackgroundImageFix" result="effect1_dropShadow_22_46"/>
<feBlend mode="normal" in="SourceGraphic" in2="effect1_dropShadow_22_46" result="shape"/>
</filter>
</defs>
</svg>
